# xmcd
#
# Track frame offsets: 
#        150
#        3149
#        22874
#        48528
#        62882
#        88379
#        104248
#        126923
#        142208
#        157837
#        180590
#        189696
#        195721
#        203480
#        208801
#        219230
#        249501
#        279226
#
# Disc length: 4169 seconds
#
# Revision: 0
# Processed by: cddbd v1.5.2PL0 Copyright (c) Steve Scherf et al.
# Submitted via: ExactAudioCopy v0.99pb4
#
DISCID=09104712
DTITLE=DJ Premier - Rare Play: Vol. 1
DYEAR=2008
DGENRE=Hip-Hop
TTITLE0=Rare Play Intro
TTITLE1=Golddyn Child (feat. Rass Kass)
TTITLE2=The Ramjahz (feat. Insp-her-a-tion and Cee-lo)
TTITLE3=Comin At Cha (feat. Tef)
TTITLE4=Look 4 Tha Name (feat. Sonja Blade)
TTITLE5=Weed Scented (feat. AG, Gang Starr, Party Arty, O.C.)
TTITLE6=Bloody Murdah (feat. MOP)
TTITLE7=We Gon Ill (feat. Blaq Poet)
TTITLE8=The Actual (feat. All City)
TTITLE9=Seek It All (feat. Screwball)
TTITLE10=Up Against The Wall (Get Away Car Mix) (feat. Group Home)
TTITLE11=Return Of The Crooklyn Dodgers (feat. Crooklyn Dodgers)
TTITLE12=The Jig Is Up (feat. Big Shug)
TTITLE13=Danger (Premier Remix) (feat. Blahzay Blahzay)
TTITLE14=Everybody Wanna Know (feat. Charlie Baltimore)
TTITLE15=Closer to God (feat. Krumb Snatcha)
TTITLE16=Against The Grain (feat. Sauce Money)
TTITLE17=1.2. Pass It (Original Remix) (feat. D&D All Stars)
EXTD=
EXTT0=
EXTT1=
EXTT2=
EXTT3=
EXTT4=
EXTT5=
EXTT6=
EXTT7=
EXTT8=
EXTT9=
EXTT10=
EXTT11=
EXTT12=
EXTT13=
EXTT14=
EXTT15=
EXTT16=
EXTT17=
PLAYORDER=
